<svg width="160" height="43" viewBox="0 0 160 43" fill="none" xmlns="http://www.w3.org/2000/svg">
<path d="M31.486 0.284607C33.7244 0.284607 35.5151 2.0671 35.5151 4.25808C35.5151 6.44906 33.7244 8.23156 31.486 8.23156C29.3223 8.23156 27.5316 6.44906 27.5316 4.25808C27.5689 2.0671 29.3596 0.284607 31.486 0.284607Z" fill="#A5410F"/>
<path d="M34.9182 11.0167H28.1284V33.1493H34.9182V11.0167Z" fill="#A5410F"/>
<path d="M54.5041 11.0166V13.3933C53.8699 12.205 51.9672 10.6082 48.3112 10.6082C42.2303 10.6082 37.9773 15.6214 37.9773 21.4517C37.9773 27.579 42.4168 32.2209 48.3112 32.2209C51.5569 32.2209 53.4595 30.9212 54.2802 29.7328V30.7355C54.2802 34.7461 52.1911 36.4172 48.7589 36.4172C46.5951 36.4172 44.9536 35.266 44.2821 33.5949C44.2075 33.4464 44.1329 33.2978 44.0956 33.1493H37.8654C37.8654 33.1493 37.8654 33.7806 37.9773 34.4119C38.7235 38.3111 42.6779 42.2846 49.0947 42.2846C57.414 42.2846 60.9954 36.7514 60.9954 30.4013V11.0166H54.5041ZM49.5796 26.3535C46.8563 26.3535 44.8044 24.4596 44.8044 21.4517C44.8044 18.4066 47.0428 16.5498 49.5796 16.5498C52.1165 16.5498 54.3176 18.4066 54.3176 21.4517C54.3176 24.4596 52.3403 26.3535 49.5796 26.3535Z" fill="#A5410F"/>
<path d="M68.009 0.284607C70.2474 0.284607 72.0381 2.0671 72.0381 4.25808C72.0381 6.44906 70.2474 8.23156 68.009 8.23156C65.8452 8.23156 64.0545 6.44906 64.0545 4.25808C64.0545 2.0671 65.8452 0.284607 68.009 0.284607Z" fill="#A5410F"/>
<path d="M71.4411 11.0167H64.6514V33.1493H71.4411V11.0167Z" fill="#A5410F"/>
<path d="M23.8754 0.916107H17.1603V12.7623C16.6007 11.9081 14.9592 10.497 11.1539 10.497C4.84915 10.497 0.372375 15.436 0.372375 22.0089C0.372375 28.8418 5.11029 33.6323 11.3778 33.6323C14.0638 33.6323 16.3022 32.5182 17.3468 31.0328V33.1495H20.5925H23.8754V0.916107ZM12.2358 27.5792C9.58706 27.5792 7.23676 25.7225 7.23676 22.0461C7.23676 18.3697 9.58706 16.5872 12.2358 16.5872C14.8846 16.5872 17.2349 18.3697 17.2349 22.0461C17.2349 25.7225 14.8846 27.5792 12.2358 27.5792Z" fill="#A5410F"/>
<path d="M145.606 20.375L150.829 19.558C152.023 19.3724 152.433 18.8153 152.433 18.0355C152.433 16.7357 151.314 15.6217 149.15 15.6217C146.763 15.6217 145.494 17.2185 145.345 18.8896L139.451 17.7013C139.712 14.5448 142.659 10.3485 149.188 10.3485C156.388 10.3485 159.037 14.3591 159.037 18.8896V29.696C159.037 31.4413 159.26 32.8896 159.298 33.1124H153.18C153.142 32.9267 152.956 32.1469 152.956 30.6243C151.799 32.4811 149.635 33.7437 146.688 33.7437C141.801 33.7437 139.003 30.5501 139.003 27.0222C139.04 23.123 141.95 20.8949 145.606 20.375ZM152.471 24.4599V23.4944L148.255 24.1628C146.837 24.3856 145.756 25.0541 145.756 26.6137C145.756 27.7649 146.502 28.879 148.404 28.879C150.419 28.879 152.471 27.9135 152.471 24.4599Z" fill="#506269"/>
<path d="M106.621 0.284698C108.86 0.284698 110.65 2.06719 110.65 4.25817C110.65 6.44915 108.86 8.23165 106.621 8.23165C104.457 8.23165 102.667 6.44915 102.667 4.25817C102.667 2.06719 104.457 0.284698 106.621 0.284698Z" fill="#506269"/>
<path d="M110.053 11.0168H103.264V33.1494H110.053V11.0168Z" fill="#506269"/>
<path d="M129.639 11.0167V13.3934C129.005 12.2051 127.102 10.6082 123.446 10.6082C117.365 10.6082 113.112 15.6215 113.112 21.4517C113.112 27.5791 117.552 32.221 123.446 32.221C126.692 32.221 128.595 30.9212 129.415 29.7329V30.7356C129.415 34.7462 127.326 36.4173 123.894 36.4173C121.73 36.4173 120.089 35.2661 119.417 33.595C119.343 33.4464 119.268 33.2979 119.231 33.1494H113C113 33.1494 113 33.7807 113.112 34.412C113.859 38.3112 117.813 42.2846 124.23 42.2846C132.549 42.2846 136.13 36.7515 136.13 30.4014V11.0167H129.639ZM124.715 26.3536C121.991 26.3536 119.939 24.4597 119.939 21.4517C119.939 18.4067 122.178 16.5499 124.715 16.5499C127.252 16.5499 129.453 18.4067 129.453 21.4517C129.453 24.4597 127.475 26.3536 124.715 26.3536Z" fill="#506269"/>
<path d="M99.0107 0.916199H92.2955V12.7624C91.7359 11.9082 90.0945 10.4971 86.2892 10.4971C79.9844 10.4971 75.5076 15.4361 75.5076 22.009C75.5076 28.8419 80.2456 33.6324 86.513 33.6324C89.1991 33.6324 91.4375 32.5183 92.4821 31.0329V33.1496H95.7277H99.0107V0.916199ZM87.3711 27.5793C84.7223 27.5793 82.372 25.7226 82.372 22.0462C82.372 18.3698 84.7223 16.5873 87.3711 16.5873C90.0198 16.5873 92.3701 18.3698 92.3701 22.0462C92.3701 25.7226 90.0198 27.5793 87.3711 27.5793Z" fill="#506269"/>
</svg>
